<svg width="76" height="20" viewBox="0 0 76 20" fill="none" xmlns="http://www.w3.org/2000/svg">
<rect x="0.117188" width="75" height="20" rx="4" fill="white"/>
<path d="M7.1634 9.78927C7.11278 9.73136 7.08489 9.65705 7.08489 9.58014C7.08489 9.50322 7.11278 9.42892 7.1634 9.37101L8.47389 7.90653C8.53181 7.85591 8.60611 7.82802 8.68303 7.82802C8.75994 7.82802 8.83425 7.85591 8.89216 7.90653L11.1932 10.0503C11.251 10.1011 11.3253 10.1291 11.4023 10.1291C11.4793 10.1291 11.5536 10.1011 11.6114 10.0503L16.1075 4.5604C16.1599 4.50384 16.2306 4.46758 16.3071 4.45799C16.3836 4.4484 16.461 4.4661 16.5258 4.50798L18.0383 5.76278C18.0892 5.82059 18.1172 5.89493 18.1172 5.97191C18.1172 6.04889 18.0892 6.12324 18.0383 6.18104L11.8681 13.7623C11.8477 13.79 11.822 13.8134 11.7925 13.8311C11.763 13.8488 11.7302 13.8604 11.6962 13.8653C11.6621 13.8702 11.6274 13.8682 11.5941 13.8595C11.5608 13.8508 11.5296 13.8356 11.5022 13.8147L7.1634 9.78927Z" fill="black"/>
<path d="M13.646 12.7696C15.4763 12.9792 16.7835 13.5012 16.7835 14.08C16.7835 14.8642 14.3809 15.5445 11.4498 15.5445C8.51867 15.5445 6.11719 14.8609 6.11719 14.08C6.11719 13.5045 7.37199 12.9825 9.20231 12.7696C9.25473 12.8788 9.35957 12.9268 9.41199 13.0306C8.15719 13.2402 7.32066 13.6061 7.32066 14.0244C7.32066 14.6523 9.2034 15.1219 11.5033 15.1219C13.8032 15.1219 15.686 14.5988 15.686 14.0244C15.686 13.6061 14.797 13.2402 13.4898 13.0306C13.5098 12.9277 13.5644 12.8353 13.646 12.7696Z" fill="black"/>
<path d="M25.869 13V7.36H27.889V6.33H22.679V7.36H24.699V13H25.869ZM29.0486 13V9.71C29.2586 9.37 29.8486 9.07 30.2886 9.07C30.4186 9.07 30.5286 9.08 30.6186 9.1V8.06C29.9886 8.06 29.4086 8.42 29.0486 8.88V8.17H27.9986V13H29.0486ZM35.6754 13V8.17H34.6254V11.56C34.3754 11.89 33.9154 12.19 33.3854 12.19C32.7954 12.19 32.4154 11.96 32.4154 11.21V8.17H31.3654V11.59C31.3654 12.58 31.8754 13.12 32.9154 13.12C33.6754 13.12 34.2754 12.75 34.6254 12.36V13H35.6754ZM40.1492 13.12C41.6192 13.12 42.4592 12.31 42.9392 11.48L41.7192 10.89C41.4392 11.44 40.8392 11.86 40.1492 11.86C38.9392 11.86 38.0592 10.93 38.0592 9.67C38.0592 8.41 38.9392 7.48 40.1492 7.48C40.8392 7.48 41.4392 7.91 41.7192 8.45L42.9392 7.85C42.4692 7.02 41.6192 6.22 40.1492 6.22C38.1492 6.22 36.5992 7.62 36.5992 9.67C36.5992 11.72 38.1492 13.12 40.1492 13.12ZM48.1944 13V9.57C48.1944 8.63 47.6844 8.05 46.6244 8.05C45.8344 8.05 45.2344 8.43 44.9244 8.8V6.33H43.6544V13H44.9244V9.75C45.1444 9.46 45.5344 9.18 46.0244 9.18C46.5744 9.18 46.9244 9.39 46.9244 10.06V13H48.1944ZM51.6252 13.12C52.3752 13.12 53.1352 12.89 53.6152 12.45L53.0552 11.63C52.7452 11.93 52.1752 12.11 51.7652 12.11C50.9452 12.11 50.4552 11.6 50.3752 10.99H53.9652V10.71C53.9652 9.13 52.9852 8.05 51.5452 8.05C50.0752 8.05 49.0452 9.18 49.0452 10.58C49.0452 12.13 50.1552 13.12 51.6252 13.12ZM52.7352 10.13H50.3552C50.4152 9.65 50.7552 9.06 51.5452 9.06C52.3852 9.06 52.7052 9.67 52.7352 10.13ZM57.0325 13.12C58.0225 13.12 58.6225 12.69 58.9425 12.24L58.1125 11.47C57.8825 11.79 57.5325 11.99 57.0925 11.99C56.3225 11.99 55.7825 11.42 55.7825 10.58C55.7825 9.74 56.3225 9.18 57.0925 9.18C57.5325 9.18 57.8825 9.36 58.1125 9.7L58.9425 8.92C58.6225 8.48 58.0225 8.05 57.0325 8.05C55.5425 8.05 54.4725 9.1 54.4725 10.58C54.4725 12.07 55.5425 13.12 57.0325 13.12ZM64.3928 13L62.4228 10.36L64.3328 8.17H62.7728L60.9428 10.32V6.33H59.6728V13H60.9428V11.76L61.5228 11.14L62.8028 13H64.3928ZM68.4843 8.53V6.33H68.0543L67.4143 7.93L66.7743 6.33H66.3443V8.53H66.6243V6.71L67.3743 8.53H67.4543L68.2043 6.71V8.53H68.4843ZM65.9843 6.59V6.33H64.4643V6.59H65.0843V8.53H65.3643V6.59H65.9843Z" fill="#3A3F47"/>
</svg>
