<svg xmlns="http://www.w3.org/2000/svg" width="20" height="20" viewBox="0 0 20 20" fill="none">
<path d="M3.2 17C2.88 17 2.6 16.8816 2.36 16.6447C2.12 16.4079 2 16.1316 2 15.8158V6.08553C2 5.76974 2.12 5.49342 2.36 5.25658C2.6 5.01974 2.88 4.90132 3.2 4.90132H7V3.18421C7 2.86842 7.12 2.59211 7.36 2.35526C7.6 2.11842 7.88 2 8.2 2H11.8C12.12 2 12.4 2.11842 12.64 2.35526C12.88 2.59211 13 2.86842 13 3.18421V4.90132H16.8C17.12 4.90132 17.4 5.01974 17.64 5.25658C17.88 5.49342 18 5.76974 18 6.08553V15.8158C18 16.1316 17.88 16.4079 17.64 16.6447C17.4 16.8816 17.12 17 16.8 17H3.2ZM8.2 4.90132H11.8V3.18421H8.2V4.90132ZM3.2 15.8158H16.8V6.08553H3.2V15.8158ZM3.2 15.8158V6.08553V15.8158Z" fill="#23262A"/>
</svg>