<svg width="247" height="185" viewBox="0 0 247 185" fill="none" xmlns="http://www.w3.org/2000/svg">
  <rect width="247" height="183.787" transform="translate(0 0.606445)" fill="white"/>
  <path d="M22.088 113.152C32.2121 77.4711 61.1098 79.9511 85.8338 65.3036C96.2873 59.1104 108.179 43.7369 117.08 35.2611C135.888 17.351 170.827 13.4905 183.754 40.4305C189.162 51.7001 193.032 63.6797 199.057 74.5981C207.437 89.7838 229.067 109.339 221.478 131.231C206.59 174.176 159.22 145.769 129.399 149.952C107.527 153.02 74.825 180.975 44.4765 167.84C32.7816 162.778 27.5394 157.193 23.3135 145.451C19.462 134.75 19.1079 123.652 22.0871 113.154L22.088 113.152Z" fill="url(#paint0_linear_193_9448)" fill-opacity="0.6"/>
  <g clip-path="url(#clip0_193_9448)">
  <path d="M154.468 33.4697H95.3954C91.8852 33.4697 89.0347 36.3545 89.0347 39.9162V164.884C89.0347 168.441 91.8852 171.33 95.3954 171.33H154.468C157.982 171.33 160.837 168.441 160.837 164.884V39.9162C160.837 36.3504 157.982 33.4697 154.468 33.4697ZM158.777 162.816C158.777 166.204 157.182 168.949 154.033 168.949H95.8427C92.6893 168.949 91.0907 166.208 91.0907 162.816V42.8838C91.0907 35.9792 93.6425 35.6408 96.8 35.6408H108.069C108.725 35.6408 109.26 36.3795 109.26 37.2999V37.6961C109.26 39.8462 110.443 39.8545 111.899 39.8545H137.968C139.433 39.8545 140.607 39.8462 140.607 37.6961V37.2999C140.607 36.3836 141.134 35.6408 141.802 35.6408H153.076C156.225 35.6408 158.777 36.557 158.777 42.8838V162.816Z" fill="#62A0F2"/>
  <path d="M128.492 37.1679H121.38C121.14 37.1679 120.94 36.9739 120.94 36.7304C120.94 36.4911 121.135 36.293 121.38 36.293H128.492C128.733 36.293 128.932 36.4869 128.932 36.7304C128.932 36.9698 128.737 37.1679 128.492 37.1679Z" fill="white"/>
  <path d="M158.773 42.8826V162.815C158.773 166.203 157.178 168.948 154.029 168.948H95.8428C92.6894 168.948 91.0908 166.207 91.0908 162.815V42.8826C91.0908 35.9781 93.6426 35.6396 96.8001 35.6396H108.069C108.725 35.6396 109.26 36.3784 109.26 37.2987V37.6949C109.26 39.8451 110.443 39.8534 111.899 39.8534H137.969C139.433 39.8534 140.607 39.8451 140.607 37.6949V37.2987C140.607 36.3825 141.134 35.6396 141.802 35.6396H153.076C156.225 35.6396 158.777 36.5559 158.777 42.8826H158.773Z" fill="url(#paint1_linear_193_9448)"/>
  <path d="M139.093 165.237H110.775C110.422 165.237 110.136 165.522 110.136 165.873C110.136 166.224 110.422 166.508 110.775 166.508H139.093C139.446 166.508 139.732 166.224 139.732 165.873C139.732 165.522 139.446 165.237 139.093 165.237Z" fill="#62A0F2"/>
  <path opacity="0.5" d="M78.5039 165.903C121.007 150.794 136.462 125.477 149.349 34.9057C156.529 34.427 158.363 36.1685 158.923 39.2139L158.698 163.465C158.613 166.155 157.325 168.119 155.517 169.046C154.914 169.286 154.237 169.415 153.486 169.415H83.5248C81.0495 169.415 79.371 168.012 78.5039 165.903Z" fill="#3A88EF" fill-opacity="0.12"/>
  <g clip-path="url(#clip1_193_9448)">
  <path d="M105.82 37.8322C105.78 37.8714 105.741 37.9062 105.706 37.9454C105.685 37.9671 105.663 37.9889 105.641 38.0106C105.332 37.7147 104.971 37.5537 104.54 37.5537C104.114 37.5537 103.748 37.7104 103.439 38.0106C103.417 37.9889 103.4 37.9671 103.378 37.9454C103.339 37.9062 103.304 37.8714 103.265 37.8322C103.265 37.8322 103.269 37.8235 103.274 37.8235C103.322 37.78 103.37 37.7365 103.417 37.6973C103.522 37.6146 103.631 37.545 103.753 37.4841C103.892 37.4145 104.04 37.3622 104.196 37.3361C104.27 37.3231 104.344 37.3144 104.418 37.3057C104.444 37.3057 104.605 37.3057 104.61 37.3057C104.662 37.3057 104.71 37.31 104.762 37.3187C104.901 37.3318 105.036 37.3666 105.167 37.4145C105.263 37.4493 105.354 37.4928 105.441 37.545C105.532 37.5972 105.624 37.6581 105.702 37.7278C105.741 37.7626 105.78 37.8018 105.824 37.8366L105.82 37.8322Z" fill="#62A0F2"/>
  <path d="M103.8 38.3718C103.739 38.3109 103.683 38.2543 103.622 38.1934C103.826 37.9932 104.07 37.8626 104.357 37.8235C104.783 37.7669 105.149 37.8974 105.462 38.189C105.401 38.2499 105.34 38.3109 105.28 38.3674C105.075 38.1672 104.831 38.0628 104.54 38.0628C104.253 38.0628 104.005 38.1716 103.8 38.3674V38.3718Z" fill="#62A0F2"/>
  <path d="M105.097 38.5498C105.036 38.6108 104.98 38.6673 104.919 38.7283C104.815 38.6282 104.688 38.5716 104.54 38.5716C104.392 38.5716 104.266 38.6282 104.162 38.7283C104.101 38.6673 104.044 38.6108 103.983 38.5498C104.271 38.2496 104.784 38.2278 105.097 38.5498Z" fill="#62A0F2"/>
  <path d="M104.701 38.8944C104.701 38.9858 104.627 39.0554 104.54 39.0554C104.453 39.0554 104.379 38.9814 104.379 38.8944C104.379 38.8074 104.453 38.7334 104.54 38.7334C104.627 38.7334 104.701 38.8074 104.701 38.8944Z" fill="#62A0F2"/>
  <path d="M95.1487 38.648C95.4083 38.648 95.6187 38.4375 95.6187 38.178C95.6187 37.9184 95.4083 37.708 95.1487 37.708C94.8891 37.708 94.6787 37.9184 94.6787 38.178C94.6787 38.4375 94.8891 38.648 95.1487 38.648Z" fill="#62A0F2"/>
  <path d="M96.1631 38.178C96.1631 37.9169 96.372 37.708 96.6331 37.708C96.8942 37.708 97.103 37.9169 97.103 38.178C97.103 38.4391 96.8942 38.648 96.6331 38.648C96.372 38.648 96.1631 38.4391 96.1631 38.178Z" fill="#62A0F2"/>
  <path d="M98.1126 38.648C98.3721 38.648 98.5825 38.4375 98.5825 38.178C98.5825 37.9184 98.3721 37.708 98.1126 37.708C97.853 37.708 97.6426 37.9184 97.6426 38.178C97.6426 38.4375 97.853 38.648 98.1126 38.648Z" fill="#62A0F2"/>
  <path d="M99.1216 38.178C99.1216 37.9169 99.3305 37.708 99.5916 37.708C99.8527 37.708 100.062 37.9169 100.062 38.178C100.062 38.4391 99.8527 38.648 99.5916 38.648C99.3305 38.648 99.1216 38.4391 99.1216 38.178Z" fill="#62A0F2"/>
  <path d="M100.605 38.178C100.605 37.9169 100.814 37.708 101.075 37.708C101.337 37.708 101.545 37.9169 101.545 38.178C101.545 38.4391 101.337 38.648 101.075 38.648C100.814 38.648 100.605 38.4391 100.605 38.178Z" fill="#62A0F2"/>
  <path d="M155.611 37.5254H151.978V39.105H155.611V37.5254Z" fill="#62A0F2"/>
  <path fill-rule="evenodd" clip-rule="evenodd" d="M151.869 37.417H155.72V39.2142H151.869V37.417ZM152.086 37.6346V38.9966H155.502V37.6346H152.086Z" fill="#62A0F2"/>
  <path d="M154.663 37.7305H152.195V38.9011H154.663V37.7305Z" fill="#62A0F2"/>
  <path d="M156.051 37.8438H155.711V38.7924H156.051V37.8438Z" fill="#62A0F2"/>
  </g>
  <path d="M108.182 63.6948V61.6505L113.38 53.5752H115.168V56.4049H114.11L110.833 61.5186V61.6146H118.219V63.6948H108.182ZM114.158 65.8531V63.0714L114.207 62.1661V53.5752H116.675V65.8531H114.158Z" fill="#3A88EF" fill-opacity="0.12"/>
  <path d="M121.512 64.4262C121.11 64.4262 120.766 64.2864 120.478 64.0066C120.194 63.7268 120.052 63.3871 120.052 62.9874C120.052 62.5958 120.194 62.26 120.478 61.9803C120.766 61.7005 121.11 61.5606 121.512 61.5606C121.901 61.5606 122.241 61.7005 122.533 61.9803C122.825 62.26 122.971 62.5958 122.971 62.9874C122.971 63.2512 122.902 63.493 122.764 63.7128C122.63 63.9287 122.454 64.1025 122.235 64.2344C122.016 64.3623 121.775 64.4262 121.512 64.4262ZM121.512 58.4012C121.11 58.4012 120.766 58.2613 120.478 57.9816C120.194 57.7018 120.052 57.3621 120.052 56.9624C120.052 56.5707 120.194 56.237 120.478 55.9612C120.766 55.6815 121.11 55.5416 121.512 55.5416C121.901 55.5416 122.241 55.6815 122.533 55.9612C122.825 56.237 122.971 56.5707 122.971 56.9624C122.971 57.2302 122.902 57.474 122.764 57.6938C122.63 57.9096 122.454 58.0815 122.235 58.2094C122.016 58.3373 121.775 58.4012 121.512 58.4012Z" fill="#3A88EF" fill-opacity="0.12"/>
  <path d="M130.49 53.5752V65.8531H127.857V56.0392H127.784L124.933 57.8017V55.4996L128.015 53.5752H130.49Z" fill="#3A88EF" fill-opacity="0.12"/>
  <path d="M137.996 66.0209C137.137 66.0209 136.371 65.8651 135.698 65.5533C135.029 65.2416 134.499 64.8119 134.105 64.2644C133.712 63.7168 133.508 63.0893 133.491 62.3819H136.045C136.073 62.8575 136.276 63.2432 136.653 63.539C137.03 63.8347 137.478 63.9826 137.996 63.9826C138.41 63.9826 138.774 63.8927 139.091 63.7128C139.411 63.529 139.66 63.2752 139.838 62.9515C140.021 62.6237 140.112 62.248 140.112 61.8244C140.112 61.3927 140.019 61.0131 139.832 60.6853C139.65 60.3576 139.397 60.1018 139.072 59.918C138.748 59.7341 138.377 59.6402 137.96 59.6362C137.595 59.6362 137.24 59.7101 136.896 59.858C136.555 60.0059 136.29 60.2077 136.099 60.4635L133.759 60.0499L134.349 53.5752H141.96V55.6974H136.519L136.197 58.7729H136.27C136.489 58.4692 136.819 58.2174 137.261 58.0175C137.702 57.8177 138.197 57.7178 138.744 57.7178C139.494 57.7178 140.163 57.8916 140.75 58.2393C141.338 58.5871 141.802 59.0647 142.143 59.6722C142.483 60.2757 142.651 60.9711 142.647 61.7584C142.651 62.5858 142.457 63.3212 142.064 63.9646C141.674 64.6041 141.129 65.1077 140.428 65.4754C139.731 65.8391 138.92 66.0209 137.996 66.0209Z" fill="#3A88EF" fill-opacity="0.12"/>
  </g>
  <path d="M44.6362 144.778C44.2193 144.373 44.3354 143.638 44.7474 143.232C45.1611 142.825 45.7726 142.685 46.3579 142.645C47.303 142.58 48.1761 142.721 49.0819 142.908C48.3723 142.397 47.6823 141.861 47.0119 141.305C46.5688 140.938 46.1323 140.56 45.7055 140.173C44.7752 141.091 43.5636 141.726 42.2719 141.971C41.7831 142.063 41.2108 142.077 40.8576 141.732C40.444 141.328 40.5584 140.594 40.9705 140.186C41.3825 139.78 41.9907 139.638 42.5728 139.599C43.5489 139.532 44.4465 139.685 45.3851 139.882C44.0803 138.676 42.8622 137.378 41.7667 135.987C40.7105 136.727 39.4302 137.154 38.1353 137.191C37.6366 137.205 37.0709 137.131 36.7766 136.733C36.4332 136.269 36.6654 135.561 37.1363 135.226C37.6072 134.889 38.2318 134.845 38.8122 134.895C39.7524 134.979 40.5879 135.253 41.4495 135.577C40.3181 134.092 39.2831 132.45 38.7828 130.654C38.773 130.617 38.7632 130.578 38.7533 130.541C37.5925 131.139 36.2485 131.387 34.9453 131.24C34.4499 131.186 33.9006 131.031 33.6667 130.597C33.3937 130.089 33.7256 129.422 34.2406 129.154C34.7557 128.887 35.3803 128.932 35.9476 129.064C36.9466 129.298 37.7903 129.736 38.6716 130.228C38.1517 128.137 38.0208 125.944 37.429 123.874C36.2534 124.494 34.8865 124.755 33.5621 124.606C33.0667 124.552 32.5173 124.397 32.2835 123.963C32.0104 123.455 32.3424 122.788 32.8574 122.522C33.3724 122.254 33.997 122.299 34.5644 122.432C35.5895 122.672 36.4528 123.128 37.3587 123.634C37.2017 123.12 37.0137 122.614 36.7815 122.119C36.3106 121.118 35.6255 120.226 34.8064 119.464C33.8237 120.395 32.5435 121.019 31.1946 121.216C30.7008 121.289 30.1302 121.279 29.7917 120.918C29.396 120.497 29.5415 119.767 29.9699 119.378C30.3983 118.99 31.0131 118.874 31.5952 118.857C32.6628 118.828 33.6275 119.057 34.651 119.32C33.3005 118.114 31.6082 117.247 29.8882 116.799C28.899 117.531 27.6989 117.985 26.466 118.088C25.969 118.129 25.4 118.084 25.0844 117.703C24.7165 117.258 24.9095 116.539 25.3624 116.178C25.8153 115.817 26.4366 115.74 27.0187 115.76C27.9474 115.793 28.7845 116.017 29.6478 116.289C29.6805 116.281 29.7165 116.281 29.7574 116.289C31.2305 116.638 32.6236 117.284 33.8629 118.142C34.136 118.33 34.4025 118.53 34.6625 118.74C34.0886 117.697 33.8057 116.499 33.8629 115.312C33.8875 114.821 34.0068 114.271 34.4303 114.013C34.9257 113.711 35.6239 113.994 35.928 114.484C36.2321 114.974 36.2272 115.591 36.1307 116.157C35.9493 117.213 35.5241 118.114 35.0533 119.07C35.5781 119.533 36.0588 120.044 36.4578 120.616C37.0627 121.48 37.4747 122.424 37.7772 123.407C37.7265 122.183 38.0307 120.947 38.6487 119.886C38.8972 119.46 39.2586 119.024 39.7556 118.985C40.3361 118.94 40.8249 119.506 40.8691 120.078C40.9132 120.65 40.6238 121.198 40.2756 121.658C39.6085 122.54 38.786 123.16 37.8982 123.818C38.3511 125.453 38.5424 127.179 38.8514 128.829C38.9479 129.348 39.0591 129.86 39.1981 130.363C39.0754 129.04 39.373 127.681 40.0434 126.528C40.2919 126.102 40.6516 125.666 41.1487 125.625C41.7291 125.58 42.2196 126.144 42.2638 126.717C42.3079 127.289 42.0201 127.837 41.6719 128.298C40.9901 129.201 40.1464 129.83 39.2357 130.507C39.3894 131.042 39.5774 131.568 39.8194 132.079C40.2625 133.014 40.8119 133.899 41.4119 134.744C41.5721 134.968 41.7357 135.19 41.9024 135.409C41.6752 134.225 41.7863 132.978 42.2245 131.853C42.4027 131.394 42.6921 130.908 43.1778 130.795C43.7451 130.663 44.3157 131.147 44.4498 131.706C44.5823 132.266 44.3828 132.851 44.1097 133.357C43.6061 134.295 42.9227 135.014 42.1804 135.769C43.2497 137.128 44.4531 138.392 45.7268 139.567C45.1888 138.426 44.9926 137.131 45.1758 135.885C45.2477 135.398 45.4194 134.861 45.8674 134.645C46.3906 134.392 47.0561 134.739 47.3111 135.255C47.5662 135.771 47.5024 136.385 47.3504 136.939C47.0626 137.992 46.5378 138.861 45.9671 139.786C46.1372 139.941 46.3089 140.094 46.4805 140.246C47.4272 141.078 48.4164 141.869 49.4465 142.605C48.9413 141.486 48.7581 140.225 48.9364 139.011C49.0083 138.524 49.18 137.987 49.628 137.771C50.1512 137.518 50.8166 137.865 51.0733 138.381C51.3284 138.897 51.2646 139.511 51.1126 140.065C50.833 141.089 50.3294 141.939 49.7768 142.835C50.9605 143.659 52.1999 144.407 53.4916 145.052C53.7614 145.186 53.5308 145.589 53.2627 145.455C51.9579 144.805 50.7087 144.047 49.5135 143.214C48.5783 144.134 47.3569 144.773 46.0554 145.015C45.5633 145.107 44.9894 145.121 44.6329 144.775L44.6362 144.778Z" fill="#F08080"/>
  <path d="M55.8716 154.646L56.1104 161.831C55.4412 161.338 54.7162 160.909 54.0158 160.471C53.3273 160.041 52.643 159.59 52.0369 159.044C51.4201 158.488 50.95 157.838 50.542 157.119C50.1468 156.424 49.7838 155.702 49.2495 155.098C48.8308 154.623 48.3114 154.248 47.7578 153.943C46.612 153.308 45.3376 152.952 44.1758 152.351C43.59 152.05 43.0385 151.682 42.5823 151.204C42.0308 150.628 41.6336 149.928 41.2609 149.23C40.8893 148.531 40.5391 147.818 40.0797 147.172C39.6878 146.622 39.2156 146.132 38.6844 145.716C37.6211 144.878 36.3489 144.332 35.036 144.033C31.8202 143.298 28.5317 144.116 25.4519 145.065C25.2698 145.121 25.0878 145.177 24.9057 145.236C24.668 143.368 27.3826 141.913 29.0874 141.603C30.2536 141.392 31.4433 141.797 32.6266 141.766C38.6245 141.613 42.5384 139.587 45.3173 146.494C45.6278 147.268 45.8945 148.093 46.4749 148.691C49.106 151.03 55.7763 149.474 55.8716 154.646Z" fill="#D32F2F" fill-opacity="0.12"/>
  <path d="M51.1505 169.263C46.2771 171.006 41.3576 166.758 44.5391 161.323C46.7461 158.524 43.9233 156.759 41.3908 156.11C40.1347 155.787 38.5969 155.714 37.934 154.598C36.785 152.06 40.11 148.829 34.6819 147.505C31.6192 146.758 25.8987 149.427 24.9424 145.439C24.9382 145.421 24.9339 145.401 24.9307 145.382C27.8552 144.461 30.9189 143.578 34.0029 143.995C35.3576 144.178 36.694 144.601 37.8612 145.32C38.432 145.67 38.9589 146.094 39.415 146.586C39.9226 147.135 40.3135 147.767 40.6679 148.422C41.0427 149.116 41.3833 149.83 41.8245 150.487C42.2121 151.064 42.6822 151.571 43.253 151.972C44.2842 152.697 45.5007 153.082 46.6497 153.574C47.2333 153.826 47.8127 154.107 48.3331 154.477C48.9274 154.903 49.389 155.447 49.7713 156.069C50.1889 156.748 50.5262 157.474 50.9963 158.119C51.4493 158.744 52.0243 159.267 52.6412 159.726C53.7538 160.556 55.0067 161.183 56.1161 162.02C56.1161 162.02 56.6333 167.303 51.1516 169.265L51.1505 169.263Z" fill="#D32F2F" fill-opacity="0.12"/>
  <path d="M56.1101 161.831L56.1154 162.016C55.0071 161.181 53.7542 160.552 52.6405 159.722C52.0226 159.264 51.4486 158.74 50.9957 158.116C50.5256 157.47 50.1882 156.744 49.7706 156.065C49.3883 155.444 48.9268 154.901 48.3324 154.474C47.812 154.103 47.2337 153.822 46.6491 153.571C45.5 153.079 44.2835 152.694 43.2523 151.969C42.6815 151.567 42.2114 151.062 41.8238 150.483C41.3826 149.827 41.041 149.112 40.6673 148.418C40.3128 147.763 39.922 147.131 39.4144 146.583C38.9582 146.091 38.4313 145.667 37.8606 145.316C36.6933 144.596 35.3569 144.173 34.0023 143.991C30.9182 143.575 27.8545 144.457 24.93 145.378C24.9193 145.329 24.9107 145.282 24.9043 145.232C25.0874 145.175 25.2695 145.118 25.4504 145.061C28.5302 144.112 31.8188 143.293 35.0346 144.03C36.3485 144.33 37.6196 144.875 38.683 145.712C39.2141 146.129 39.6864 146.619 40.0783 147.169C40.5377 147.814 40.8879 148.528 41.2595 149.226C41.631 149.925 42.0294 150.626 42.5809 151.201C43.0371 151.678 43.5886 152.047 44.1743 152.348C45.3362 152.95 46.6105 153.304 47.7563 153.939C48.31 154.244 48.8293 154.619 49.248 155.095C49.7824 155.699 50.1454 156.42 50.5405 157.116C50.9485 157.834 51.4186 158.484 52.0355 159.04C52.6416 159.586 53.3258 160.037 54.0144 160.468C54.7147 160.906 55.4397 161.334 56.109 161.828L56.1101 161.831Z" fill="#D32F2F" fill-opacity="0.12"/>
  <path d="M56.1101 161.831L56.1154 162.016C55.0071 161.181 53.7542 160.552 52.6405 159.722C52.0226 159.264 51.4486 158.74 50.9957 158.116C50.5256 157.47 50.1882 156.744 49.7706 156.065C49.3883 155.444 48.9268 154.901 48.3324 154.474C47.812 154.103 47.2337 153.822 46.6491 153.571C45.5 153.079 44.2835 152.694 43.2523 151.969C42.6815 151.567 42.2114 151.062 41.8238 150.483C41.3826 149.827 41.041 149.112 40.6673 148.418C40.3128 147.763 39.922 147.131 39.4144 146.583C38.9582 146.091 38.4313 145.667 37.8606 145.316C36.6933 144.596 35.3569 144.173 34.0023 143.991C30.9182 143.575 27.8545 144.457 24.93 145.378C24.9193 145.329 24.9107 145.282 24.9043 145.232C25.0874 145.175 25.2695 145.118 25.4504 145.061C28.5302 144.112 31.8188 143.293 35.0346 144.03C36.3485 144.33 37.6196 144.875 38.683 145.712C39.2141 146.129 39.6864 146.619 40.0783 147.169C40.5377 147.814 40.8879 148.528 41.2595 149.226C41.631 149.925 42.0294 150.626 42.5809 151.201C43.0371 151.678 43.5886 152.047 44.1743 152.348C45.3362 152.95 46.6105 153.304 47.7563 153.939C48.31 154.244 48.8293 154.619 49.248 155.095C49.7824 155.699 50.1454 156.42 50.5405 157.116C50.9485 157.834 51.4186 158.484 52.0355 159.04C52.6416 159.586 53.3258 160.037 54.0144 160.468C54.7147 160.906 55.4397 161.334 56.109 161.828L56.1101 161.831Z" fill="white"/>
  <path d="M167.892 82.3672H169.218C169.498 82.3672 169.725 82.5942 169.725 82.8748V83.0065H167.384V82.8748C167.384 82.5942 167.611 82.3672 167.892 82.3672Z" fill="#FFB4A8"/>
  <path d="M183.005 82.8957C183.005 82.5455 182.722 82.2617 182.37 82.2617C182.019 82.2617 181.736 82.5455 181.736 82.8957C181.736 83.2459 182.02 83.5297 182.37 83.5297C182.72 83.5297 183.005 83.2459 183.005 82.8957Z" fill="#FFB4A8"/>
  <path d="M181.453 82.8957C181.453 82.5455 181.169 82.2617 180.819 82.2617C180.469 82.2617 180.185 82.5455 180.185 82.8957C180.185 83.2459 180.469 83.5297 180.819 83.5297C181.169 83.5297 181.453 83.2459 181.453 82.8957Z" fill="#FFB4A8"/>
  <path d="M170.811 83.5503H178.955L178.665 81.9738C178.601 81.6247 178.258 81.3398 177.903 81.3398H171.861C171.506 81.3398 171.163 81.6247 171.1 81.9738L170.81 83.5513L170.811 83.5503Z" fill="#FFB4A8"/>
  <path d="M178.106 83.1095H171.66L171.837 82.165C171.86 82.0397 172.004 81.9219 172.133 81.9219H177.633C177.763 81.9219 177.906 82.0408 177.93 82.165L178.107 83.1095H178.106Z" fill="#D8E7FC"/>
  <g style="mix-blend-mode:screen">
  <path d="M173.856 81.9219L172.669 83.1095H171.801L172.989 81.9219H173.856Z" fill="#B0D0F9"/>
  <path d="M177.633 81.9219L176.445 83.1095H174.939L176.127 81.9219H177.633Z" fill="#B0D0F9"/>
  <path d="M174.654 81.9219L173.466 83.1095H173.193L174.381 81.9219H174.654Z" fill="#B0D0F9"/>
  </g>
  <path d="M184.752 84.8563L185.108 93.8351C185.14 94.6597 184.72 95.3794 184.074 95.7349C183.797 95.887 183.483 95.9748 183.145 95.9748H166.632C165.5 95.9748 164.622 95.0142 164.668 93.8362L165.024 84.8574C165.067 83.7693 165.971 82.8965 167.047 82.8965H182.73C183.052 82.8965 183.355 82.9757 183.629 83.1128C184.269 83.4352 184.723 84.0938 184.753 84.8574L184.752 84.8563Z" fill="#FFB4A8"/>
  <g style="mix-blend-mode:multiply">
  <path d="M184.752 84.8563L185.108 93.8351C185.14 94.6597 184.72 95.3794 184.074 95.7349C183.797 95.887 183.483 95.9748 183.145 95.9748H166.632C165.5 95.9748 164.622 95.0142 164.668 93.8362C172.616 92.8541 178.901 89.5727 182.729 82.8965C183.051 82.8965 183.354 82.9757 183.628 83.1128C184.268 83.4352 184.722 84.0938 184.752 84.8574V84.8563Z" fill="#FFEDEA"/>
  </g>
  <path d="M184.975 90.6428H164.79L164.899 87.8701H184.864L184.975 90.6428Z" fill="#FFEDEA"/>
  <path d="M176.784 94.9393C179.824 93.6802 181.267 90.1952 180.008 87.1553C178.749 84.1154 175.265 82.6719 172.225 83.931C169.185 85.1902 167.742 88.6752 169.001 91.7151C170.26 94.7549 173.745 96.1985 176.784 94.9393Z" fill="#FFEDEA"/>
  <path d="M179.975 89.4352C179.975 92.4563 177.526 94.9056 174.505 94.9056C174.324 94.9056 174.144 94.897 173.969 94.8799C172.961 94.7824 172.034 94.4108 171.261 93.84C170.557 93.3206 169.981 92.6352 169.592 91.8416C169.516 91.6874 169.447 91.53 169.386 91.3683C169.262 91.0395 169.169 90.6946 169.109 90.3391C169.06 90.0446 169.035 89.7426 169.035 89.4352C169.035 88.9704 169.093 88.5185 169.202 88.088C169.694 86.1496 171.22 84.6235 173.158 84.1319C173.588 84.0227 174.04 83.9648 174.505 83.9648C174.813 83.9648 175.115 83.9906 175.409 84.0387C175.764 84.0976 176.108 84.1919 176.438 84.3161C176.6 84.3772 176.758 84.4457 176.912 84.5217C177.706 84.9116 178.39 85.4867 178.909 86.1913C179.48 86.9635 179.851 87.8909 179.949 88.8987C179.966 89.0754 179.975 89.2542 179.975 89.4352Z" fill="#3A88EF" fill-opacity="0.3"/>
  <path d="M171.126 89.4374C171.126 87.5718 172.639 86.0586 174.505 86.0586C176.372 86.0586 177.884 87.5718 177.884 89.4374C177.884 91.303 176.372 92.8162 174.505 92.8162C172.639 92.8162 171.126 91.303 171.126 89.4374Z" fill="#D8E7FC"/>
  <path d="M171.526 89.4354C171.526 87.7904 172.861 86.4561 174.505 86.4561C176.15 86.4561 177.485 87.7904 177.485 89.4354C177.485 91.0804 176.15 92.4148 174.505 92.4148C172.861 92.4148 171.526 91.0804 171.526 89.4354Z" fill="#3A88EF" fill-opacity="0.3"/>
  <path d="M174.408 87.4453C174.517 87.1508 174.96 87.0447 175.399 87.2065C175.837 87.3692 176.104 87.7398 175.996 88.0332C175.886 88.3277 175.443 88.4338 175.005 88.272C174.567 88.1093 174.299 87.7398 174.409 87.4453H174.408Z" fill="#FFEDEA"/>
  <path d="M176.152 88.4539C176.192 88.3638 176.316 88.3306 176.43 88.381C176.544 88.4314 176.605 88.545 176.565 88.6351C176.525 88.7251 176.401 88.7584 176.287 88.708C176.174 88.6576 176.113 88.544 176.152 88.4539Z" fill="#FFEDEA"/>
  <path d="M166.03 84.4798C166.03 84.135 166.31 83.8555 166.655 83.8555C166.999 83.8555 167.279 84.135 167.279 84.4798C167.279 84.8247 166.999 85.1042 166.655 85.1042C166.31 85.1042 166.03 84.8247 166.03 84.4798Z" fill="#FFEDEA"/>
  <path d="M166.248 84.4788C166.248 84.2537 166.43 84.0703 166.656 84.0703C166.882 84.0703 167.064 84.2526 167.064 84.4788C167.064 84.705 166.882 84.8873 166.656 84.8873C166.43 84.8873 166.248 84.705 166.248 84.4788Z" fill="#D8E7FC"/>
  <path d="M204.475 99.1939L201.442 167.288C201.381 168.651 200.09 169.75 198.559 169.75H153.14C152.248 169.75 151.44 169.377 150.909 168.799C150.524 168.382 150.283 167.858 150.257 167.288L147.225 99.1939C147.149 97.4815 148.487 96.085 150.217 96.085H201.484C202.833 96.085 203.947 96.9364 204.333 98.1272V98.1294C204.441 98.4625 204.492 98.8201 204.475 99.1939Z" fill="url(#paint2_linear_193_9448)"/>
  <g style="mix-blend-mode:multiply">
  <path d="M204.474 99.1954L201.442 167.289C201.381 168.652 200.089 169.751 198.559 169.751H153.14C152.248 169.751 151.439 169.378 150.908 168.8C180.147 165.672 197.384 141.095 204.333 98.1309C204.44 98.4639 204.492 98.8216 204.474 99.1964V99.1954Z" fill="#EBF3FD"/>
  </g>
  <path d="M147.275 100.366H204.42L204.355 101.851H147.342L147.275 100.366Z" fill="#D8E7FC"/>
  <path d="M203.783 114.703L203.72 116.122H147.978L147.915 114.703H203.783Z" fill="#D8E7FC"/>
  <path d="M201.627 163.076L201.574 164.285H150.122L150.068 163.076H201.627Z" fill="#B0D0F9"/>
  <path d="M150.089 103.327L150.338 109.512C150.406 111.183 151.458 112.531 152.69 112.531H164.679C165.911 112.531 166.89 111.183 166.866 109.512L166.778 103.327H150.09H150.089Z" fill="#B0D0F9"/>
  <path d="M152.664 111.843C151.714 111.843 150.901 110.799 150.849 109.51L150.633 104.03H166.272L166.354 109.51C166.373 110.799 165.616 111.843 164.666 111.843H152.664Z" fill="#62A0F2"/>
  <path d="M164.58 104.03L164.644 107.696C164.667 108.992 163.911 110.043 162.958 110.043H150.921C150.921 110.043 150.917 110.043 150.915 110.043C151.135 111.074 151.848 111.844 152.663 111.844H164.665C165.615 111.844 166.372 110.8 166.352 109.511L166.27 104.031H164.579L164.58 104.03Z" fill="#62A0F2"/>
  <path d="M164.213 105.235H152.759C152.543 105.235 152.377 105.473 152.388 105.767C152.399 106.06 152.582 106.297 152.797 106.297H164.232C164.447 106.297 164.617 106.059 164.612 105.767C164.607 105.473 164.428 105.235 164.213 105.235Z" fill="#B0D0F9"/>
  <path d="M181.184 107.962C181.162 110.493 179.058 112.531 176.483 112.531C173.907 112.531 171.806 110.494 171.79 107.962C171.774 105.41 173.878 103.327 176.491 103.327C179.104 103.327 181.205 105.411 181.184 107.962Z" fill="#B0D0F9"/>
  <path d="M180.664 107.96C180.647 110.212 178.775 112.026 176.484 112.026C174.194 112.026 172.325 110.213 172.312 107.96C172.3 105.805 173.992 104.025 176.156 103.857C176.191 103.853 176.225 103.851 176.26 103.85C176.337 103.845 176.413 103.844 176.492 103.844C176.547 103.844 176.605 103.845 176.66 103.847C176.665 103.847 176.672 103.847 176.678 103.848C176.728 103.849 176.778 103.852 176.827 103.858C176.86 103.861 176.892 103.863 176.925 103.867C176.929 103.867 176.93 103.867 176.931 103.868C179.046 104.085 180.68 105.841 180.664 107.962V107.96Z" fill="#62A0F2"/>
  <path d="M178.122 104.17C178.613 104.848 178.901 105.677 178.897 106.57C178.886 108.831 177.015 110.652 174.719 110.652C174.147 110.652 173.602 110.54 173.106 110.336C173.865 111.361 175.096 112.027 176.485 112.027C178.777 112.027 180.648 110.214 180.665 107.962C180.677 106.261 179.63 104.796 178.123 104.17H178.122Z" fill="#62A0F2"/>
  <path d="M176.925 103.866C176.892 103.862 176.86 103.86 176.827 103.857C176.778 103.851 176.728 103.848 176.678 103.847C176.673 103.846 176.666 103.846 176.66 103.846C176.605 103.845 176.547 103.843 176.492 103.843C176.414 103.843 176.338 103.844 176.26 103.849L176.258 106.415C176.258 106.442 176.263 106.469 176.268 106.494C176.297 106.607 176.383 106.697 176.493 106.73C176.508 106.735 176.523 106.74 176.539 106.741C176.553 106.743 176.568 106.745 176.583 106.745H176.587C176.599 106.745 176.611 106.745 176.621 106.744C176.793 106.729 176.927 106.589 176.928 106.416L176.932 103.867H176.927L176.925 103.866Z" fill="#B0D0F9"/>
  <g style="mix-blend-mode:multiply">
  <path d="M176.925 103.866C176.892 103.862 176.86 103.86 176.827 103.857C176.812 103.855 176.796 103.855 176.78 103.854L176.777 106.097C176.777 106.27 176.643 106.411 176.47 106.425C176.46 106.426 176.449 106.426 176.436 106.426H176.432C176.417 106.426 176.402 106.425 176.388 106.422C176.372 106.421 176.357 106.416 176.342 106.411C176.312 106.401 176.284 106.387 176.258 106.37V106.414C176.258 106.441 176.263 106.468 176.268 106.493C176.297 106.606 176.383 106.696 176.493 106.729C176.508 106.734 176.523 106.739 176.539 106.74C176.553 106.742 176.568 106.744 176.583 106.744H176.587C176.599 106.744 176.611 106.744 176.621 106.743C176.793 106.728 176.927 106.588 176.928 106.415L176.932 103.866H176.927H176.925Z" fill="#EAEBED"/>
  </g>
  <path d="M199.315 98.5184C199.292 99.146 198.762 99.6536 198.132 99.6536C197.501 99.6536 197.006 99.146 197.026 98.5184C197.047 97.8897 197.577 97.3789 198.21 97.3789C198.843 97.3789 199.337 97.8897 199.315 98.5184Z" fill="white"/>
  <g style="mix-blend-mode:multiply">
  <path d="M198.228 99.2566C197.598 99.2566 197.102 98.7479 197.123 98.1192C197.123 98.1074 197.125 98.0967 197.127 98.085C197.068 98.2178 197.031 98.3634 197.027 98.5166C197.007 99.1441 197.501 99.6517 198.132 99.6517C198.763 99.6517 199.273 99.1623 199.312 98.5497C199.126 98.9642 198.707 99.2555 198.23 99.2555L198.228 99.2566Z" fill="#EAEBED"/>
  </g>
  <path d="M198.795 97.9985C198.789 98.1647 198.648 98.2998 198.481 98.2998C198.314 98.2998 198.183 98.1647 198.188 97.9985C198.194 97.8324 198.334 97.6973 198.502 97.6973C198.671 97.6973 198.8 97.8324 198.795 97.9985Z" fill="white"/>
  <path d="M194.914 98.5184C194.896 99.146 194.369 99.6536 193.738 99.6536C193.107 99.6536 192.609 99.146 192.625 98.5184C192.641 97.8897 193.168 97.3789 193.801 97.3789C194.434 97.3789 194.932 97.8897 194.914 98.5184Z" fill="white"/>
  <g style="mix-blend-mode:multiply">
  <path d="M193.832 99.2566C193.202 99.2566 192.703 98.7479 192.72 98.1192C192.72 98.1074 192.722 98.0967 192.722 98.085C192.663 98.2178 192.629 98.3634 192.624 98.5166C192.608 99.1441 193.106 99.6517 193.737 99.6517C194.368 99.6517 194.874 99.1623 194.91 98.5497C194.726 98.9642 194.309 99.2555 193.831 99.2555L193.832 99.2566Z" fill="#EAEBED"/>
  </g>
  <path d="M194.39 97.9985C194.386 98.1647 194.245 98.2998 194.078 98.2998C193.911 98.2998 193.779 98.1647 193.783 97.9985C193.788 97.8324 193.927 97.6973 194.095 97.6973C194.264 97.6973 194.394 97.8324 194.39 97.9985Z" fill="white"/>
  <path d="M190.513 98.5184C190.499 99.146 189.976 99.6536 189.345 99.6536C188.714 99.6536 188.213 99.146 188.225 98.5184C188.237 97.8897 188.76 97.3789 189.393 97.3789C190.026 97.3789 190.527 97.8897 190.513 98.5184Z" fill="white"/>
  <g style="mix-blend-mode:multiply">
  <path d="M189.437 99.2566C188.806 99.2566 188.304 98.7479 188.315 98.1192C188.315 98.1074 188.318 98.0967 188.318 98.085C188.26 98.2178 188.227 98.3634 188.223 98.5166C188.212 99.1441 188.713 99.6517 189.343 99.6517C189.974 99.6517 190.476 99.1623 190.509 98.5497C190.329 98.9642 189.913 99.2555 189.436 99.2555L189.437 99.2566Z" fill="#EAEBED"/>
  </g>
  <path d="M189.986 97.9976C189.983 98.1637 189.843 98.2988 189.676 98.2988C189.509 98.2988 189.376 98.1637 189.379 97.9976C189.382 97.8314 189.522 97.6963 189.689 97.6963C189.856 97.6963 189.989 97.8314 189.986 97.9976Z" fill="white"/>
  <path d="M200.186 109.778H186.542L186.651 103.325H200.435L200.186 109.778Z" fill="white"/>
  <path d="M199.765 103.963L199.572 109.152H187.191L187.285 103.963H199.765Z" fill="#D8E7FC"/>
  <g style="mix-blend-mode:screen">
  <path d="M196.574 103.963L193.348 109.152H191.375L194.586 103.963H196.574Z" fill="#A3A6AA"/>
  </g>
  <g style="mix-blend-mode:screen">
  <path d="M188.421 103.963L187.25 105.884L187.285 103.963H188.421Z" fill="#A3A6AA"/>
  </g>
  <g style="mix-blend-mode:screen">
  <path d="M193.078 103.963L189.878 109.152H188.99L192.182 103.963H193.078Z" fill="#A3A6AA"/>
  </g>
  <path d="M188.653 111.922H186.73L186.748 110.917H188.674L188.653 111.922Z" fill="white"/>
  <path d="M188.475 110.917C188.467 111.366 188.087 111.729 187.626 111.729H186.733L186.73 111.922H188.652L188.673 110.917H188.474H188.475Z" fill="#D8E7FC"/>
  <path d="M191.459 111.922H189.536L189.559 110.917H191.484L191.459 111.922Z" fill="white"/>
  <path d="M191.286 110.917C191.275 111.366 190.893 111.729 190.433 111.729H189.54L189.536 111.922H191.458L191.483 110.917H191.285H191.286Z" fill="#D8E7FC"/>
  <path d="M194.265 111.922H192.343L192.37 110.917H194.295L194.265 111.922Z" fill="white"/>
  <path d="M194.097 110.917C194.084 111.366 193.701 111.729 193.241 111.729H192.348L192.343 111.922H194.265L194.294 110.917H194.096H194.097Z" fill="#D8E7FC"/>
  <path d="M197.072 111.922H195.15L195.181 110.917H197.106L197.072 111.922Z" fill="white"/>
  <path d="M196.908 110.917C196.893 111.366 196.509 111.729 196.048 111.729H195.155L195.149 111.922H197.071L197.105 110.917H196.907H196.908Z" fill="#D8E7FC"/>
  <path d="M199.879 111.922H197.957L197.992 110.917H199.917L199.879 111.922Z" fill="white"/>
  <path d="M199.719 110.917C199.702 111.366 199.315 111.729 198.856 111.729H197.963L197.957 111.922H199.879L199.917 110.917H199.719Z" fill="#D8E7FC"/>
  <path d="M192.71 139.389C192.62 142.617 191.49 145.585 189.642 148.025C188.308 147.889 187.07 147.44 186.001 146.75C185.634 146.514 185.289 146.25 184.965 145.959C184.288 145.353 183.708 144.637 183.252 143.837C182.512 142.542 182.094 141.021 182.111 139.389C182.128 137.748 182.583 136.204 183.363 134.875C183.848 134.047 184.46 133.304 185.169 132.672C185.509 132.369 185.872 132.092 186.256 131.844C187.379 131.115 188.67 130.641 190.049 130.497C191.819 133.064 192.801 136.126 192.71 139.389Z" fill="white"/>
  <path d="M192.704 139.384C192.608 142.783 191.476 145.906 189.626 148.473C186.567 152.719 181.518 155.477 175.849 155.477C166.789 155.477 159.245 148.379 158.993 139.383C158.734 130.109 166.277 122.38 175.849 122.38C181.838 122.38 187.063 125.43 190.054 130.01C191.821 132.718 192.8 135.946 192.704 139.383V139.384Z" fill="#89B8F6"/>
  <path d="M191.852 139.385C191.766 142.612 190.694 145.58 188.94 148.021C186.036 152.059 181.24 154.685 175.849 154.685C167.236 154.685 160.073 147.932 159.846 139.385C159.613 130.587 166.776 123.264 175.849 123.264C181.528 123.264 186.484 126.152 189.327 130.493C191.007 133.06 191.94 136.121 191.853 139.385H191.852Z" fill="white"/>
  <path d="M175.849 150.048C169.854 150.048 164.891 145.31 164.782 139.383C164.67 133.335 169.634 128.325 175.849 128.325C182.064 128.325 187.026 133.335 186.916 139.383C186.807 145.31 181.844 150.048 175.849 150.048Z" fill="#D8E7FC"/>
  <path d="M175.849 147.54C171.265 147.54 167.485 143.909 167.422 139.385C167.358 134.792 171.138 131.003 175.849 131.003C180.559 131.003 184.34 134.792 184.275 139.385C184.212 143.91 180.432 147.54 175.849 147.54Z" fill="#D8E7FC"/>
  <g style="mix-blend-mode:screen">
  <path d="M174.369 142.078C170.726 142.078 167.723 139.17 167.674 135.555C167.625 131.898 170.613 128.889 174.336 128.889C178.058 128.889 181.062 131.897 181.031 135.555C181 139.17 178.011 142.078 174.368 142.078H174.369Z" fill="#464C55"/>
  </g>
  <g style="mix-blend-mode:screen">
  <path d="M169.124 133.839C169.089 133.611 169.085 133.39 169.106 133.178C169.123 132.964 169.167 132.759 169.221 132.557C169.333 132.154 169.515 131.782 169.742 131.438C170.205 130.755 170.86 130.198 171.616 129.846C172.368 129.484 173.221 129.326 174.05 129.398C174.466 129.437 174.876 129.531 175.266 129.693C175.461 129.776 175.65 129.873 175.831 129.992C176.012 130.109 176.186 130.249 176.345 130.419L176.328 130.584C175.984 130.563 175.64 130.565 175.297 130.59C174.954 130.61 174.614 130.651 174.279 130.715C173.943 130.78 173.611 130.858 173.288 130.965C173.125 131.013 172.967 131.077 172.807 131.136C172.652 131.204 172.492 131.264 172.342 131.344C171.726 131.626 171.157 132.004 170.639 132.439C170.38 132.657 170.135 132.892 169.908 133.143C169.677 133.39 169.462 133.653 169.266 133.929L169.126 133.839H169.124Z" fill="#464C55"/>
  </g>
  <g style="mix-blend-mode:multiply">
  <path d="M191.361 139.386C191.278 142.614 190.209 145.582 188.456 148.022C187.19 147.886 186.016 147.438 184.999 146.747C184.651 146.511 184.324 146.247 184.015 145.956C183.373 145.35 182.821 144.634 182.388 143.834C181.684 142.539 181.287 141.018 181.302 139.386C181.317 137.745 181.746 136.201 182.486 134.872C182.945 134.044 183.526 133.301 184.198 132.669C184.522 132.366 184.865 132.089 185.23 131.841C186.295 131.112 187.52 130.638 188.829 130.494C190.511 133.061 191.446 136.123 191.361 139.386Z" fill="#EAEBED"/>
  </g>
  <path d="M191.852 139.384C191.766 142.612 190.694 145.58 188.94 148.02C187.674 147.884 186.499 147.436 185.484 146.745C185.136 146.509 184.809 146.245 184.501 145.954C183.859 145.348 183.308 144.632 182.875 143.832C182.172 142.537 181.776 141.016 181.792 139.384C181.808 137.744 182.239 136.199 182.98 134.87C183.44 134.042 184.02 133.299 184.693 132.667C185.016 132.364 185.36 132.087 185.724 131.839C186.791 131.11 188.016 130.636 189.324 130.492C191.005 133.059 191.937 136.121 191.851 139.384H191.852Z" fill="white"/>
  <path d="M95.5531 20.763L95.2833 19.3836C95.279 19.3611 95.2619 19.3429 95.2394 19.3386L93.8665 19.0398C93.8055 19.027 93.8066 18.9392 93.8676 18.9263L95.2469 18.6564C95.2694 18.6522 95.2876 18.635 95.2918 18.6125L95.5906 17.2396C95.6035 17.1785 95.6913 17.1796 95.7041 17.2407L95.974 18.62C95.9783 18.6425 95.9954 18.6607 96.0179 18.665L97.3907 18.9638C97.4517 18.9767 97.4507 19.0645 97.3896 19.0773L96.0104 19.3472C95.9879 19.3515 95.9697 19.3686 95.9654 19.3911L95.6666 20.7641C95.6538 20.8251 95.566 20.824 95.5531 20.763Z" fill="#89B8F6"/>
  <path d="M52.3749 92.7503L52.1051 91.3709C52.1008 91.3484 52.0836 91.3302 52.0611 91.3259L50.6883 91.0271C50.6273 91.0143 50.6283 90.9265 50.6894 90.9136L52.0686 90.6438C52.0911 90.6395 52.1093 90.6223 52.1136 90.5998L52.4124 89.2269C52.4252 89.1658 52.5131 89.1669 52.5259 89.228L52.7957 90.6073C52.8 90.6298 52.8172 90.648 52.8397 90.6523L54.2125 90.9511C54.2735 90.964 54.2725 91.0518 54.2114 91.0646L52.8322 91.3345C52.8097 91.3388 52.7915 91.3559 52.7872 91.3784L52.4884 92.7514C52.4756 92.8124 52.3878 92.8113 52.3749 92.7503Z" fill="#FF8A78"/>
  <path d="M52.3749 92.7503L52.1051 91.3709C52.1008 91.3484 52.0836 91.3302 52.0611 91.3259L50.6883 91.0271C50.6273 91.0143 50.6283 90.9265 50.6894 90.9136L52.0686 90.6438C52.0911 90.6395 52.1093 90.6223 52.1136 90.5998L52.4124 89.2269C52.4252 89.1658 52.5131 89.1669 52.5259 89.228L52.7957 90.6073C52.8 90.6298 52.8172 90.648 52.8397 90.6523L54.2125 90.9511C54.2735 90.964 54.2725 91.0518 54.2114 91.0646L52.8322 91.3345C52.8097 91.3388 52.7915 91.3559 52.7872 91.3784L52.4884 92.7514C52.4756 92.8124 52.3878 92.8113 52.3749 92.7503Z" fill="white" fill-opacity="0.3"/>
  <path d="M149.933 24.43L149.663 23.0506C149.659 23.0281 149.642 23.0099 149.619 23.0056L148.246 22.7068C148.185 22.694 148.186 22.6062 148.247 22.5933L149.627 22.3234C149.649 22.3192 149.667 22.302 149.672 22.2795L149.97 20.9066C149.983 20.8455 150.071 20.8466 150.084 20.9077L150.354 22.287C150.358 22.3095 150.375 22.3277 150.398 22.332L151.771 22.6308C151.832 22.6436 151.831 22.7315 151.77 22.7443L150.39 23.0142C150.368 23.0185 150.35 23.0356 150.345 23.0581L150.047 24.431C150.034 24.4921 149.946 24.491 149.933 24.43Z" fill="#89B8F6"/>
  <path d="M17.2937 73.9776L16.8365 71.643C16.829 71.6044 16.799 71.5744 16.7615 71.5659L14.4367 71.0604C14.3328 71.0379 14.335 70.889 14.4388 70.8687L16.7733 70.4114C16.8119 70.4039 16.8418 70.3739 16.8504 70.3364L17.3548 68.0114C17.3773 67.9075 17.5261 67.9097 17.5465 68.0136L18.0037 70.3482C18.0112 70.3868 18.0412 70.4168 18.0787 70.4253L20.4035 70.9297C20.5074 70.9522 20.5052 71.1011 20.4014 71.1214L18.0669 71.5787C18.0284 71.5862 17.9984 71.6162 17.9898 71.6537L17.4854 73.9787C17.4629 74.0826 17.3141 74.0804 17.2937 73.9766V73.9776Z" fill="#89B8F6"/>
  <path d="M192.65 85.0978L192.193 82.7631C192.185 82.7245 192.155 82.6946 192.118 82.686L189.793 82.1805C189.689 82.158 189.691 82.0092 189.795 81.9888L192.13 81.5315C192.168 81.524 192.198 81.494 192.207 81.4566L192.712 79.1315C192.735 79.0277 192.884 79.0298 192.904 79.1337L193.361 81.4683C193.369 81.5069 193.399 81.5369 193.436 81.5454L195.761 82.0509C195.865 82.0734 195.863 82.2223 195.759 82.2426L193.424 82.6999C193.386 82.7074 193.356 82.7374 193.347 82.7749L192.842 85.0999C192.819 85.2038 192.671 85.2016 192.65 85.0978Z" fill="#89B8F6"/>
  <path d="M229.766 169.416H25.8475C25.3188 169.416 24.8901 169.845 24.8901 170.373C24.8901 170.902 25.3188 171.331 25.8475 171.331H229.766C230.295 171.331 230.723 170.902 230.723 170.373C230.723 169.845 230.295 169.416 229.766 169.416Z" fill="#3A88EF"/>
  <path d="M194.345 177.943H154.006C153.661 177.943 153.382 178.222 153.382 178.567C153.382 178.911 153.661 179.19 154.006 179.19H194.345C194.689 179.19 194.968 178.911 194.968 178.567C194.968 178.222 194.689 177.943 194.345 177.943Z" fill="#3A88EF"/>
  <path d="M142.915 177.943H122.817C122.472 177.943 122.193 178.222 122.193 178.567C122.193 178.911 122.472 179.19 122.817 179.19H142.915C143.26 179.19 143.539 178.911 143.539 178.567C143.539 178.222 143.26 177.943 142.915 177.943Z" fill="#3A88EF"/>
  <path d="M129.306 13.6642L128.849 11.3295C128.841 11.291 128.811 11.261 128.774 11.2524L126.449 10.7469C126.345 10.7244 126.347 10.5756 126.451 10.5552L128.786 10.0979C128.824 10.0904 128.854 10.0604 128.863 10.023L129.368 7.69794C129.391 7.59406 129.539 7.5962 129.56 7.70008L130.017 10.0347C130.024 10.0733 130.054 10.1033 130.092 10.1118L132.417 10.6173C132.521 10.6398 132.519 10.7887 132.415 10.809L130.08 11.2663C130.042 11.2738 130.012 11.3038 130.003 11.3413L129.499 13.6663C129.476 13.7702 129.327 13.768 129.307 13.6642H129.306Z" fill="#FF8A78"/>
  <path d="M129.306 13.6642L128.849 11.3295C128.841 11.291 128.811 11.261 128.774 11.2524L126.449 10.7469C126.345 10.7244 126.347 10.5756 126.451 10.5552L128.786 10.0979C128.824 10.0904 128.854 10.0604 128.863 10.023L129.368 7.69794C129.391 7.59406 129.539 7.5962 129.56 7.70008L130.017 10.0347C130.024 10.0733 130.054 10.1033 130.092 10.1118L132.417 10.6173C132.521 10.6398 132.519 10.7887 132.415 10.809L130.08 11.2663C130.042 11.2738 130.012 11.3038 130.003 11.3413L129.499 13.6663C129.476 13.7702 129.327 13.768 129.307 13.6642H129.306Z" fill="white" fill-opacity="0.3"/>
  <g clip-path="url(#clip2_193_9448)">
  <path d="M55.8557 169.228L55.0104 169.23L54.8632 102.31V102.117L54.8369 90.0356L54.8281 86.3317L54.8149 80.2834L55.6603 80.2812L55.6735 86.3317L55.6823 90.0356L55.8557 169.228Z" fill="#ED6C02"/>
  <path d="M55.8557 169.228L55.0104 169.23L54.8632 102.31V102.117L54.8369 90.0356L54.8281 86.3317L54.8149 80.2834L55.6603 80.2812L55.6735 86.3317L55.6823 90.0356L55.8557 169.228Z" fill="black" fill-opacity="0.6"/>
  <path d="M68.931 170.173L68.1039 170.373L55.9268 101.942L58.6107 90.0361L59.4451 86.3322L60.7099 80.7227L61.5275 80.9732L60.3198 86.3322L59.4847 90.0361L56.7948 101.968L68.931 170.173Z" fill="#ED6C02"/>
  <path d="M68.931 170.173L68.1039 170.373L55.9268 101.942L58.6107 90.0361L59.4451 86.3322L60.7099 80.7227L61.5275 80.9732L60.3198 86.3322L59.4847 90.0361L56.7948 101.968L68.931 170.173Z" fill="black" fill-opacity="0.6"/>
  <path d="M54.8821 102.204L54.8638 102.311V102.311L54.863 102.316L42.9523 170.372L42.1245 170.175L54.0154 102.232L51.2656 90.0369L50.4305 86.333L49.2821 81.2362L50.0996 80.9863L51.3044 86.333L52.1395 90.0369L54.8638 102.118V102.12L54.8821 102.204Z" fill="#ED6C02"/>
  <path d="M54.8821 102.204L54.8638 102.311V102.311L54.863 102.316L42.9523 170.372L42.1245 170.175L54.0154 102.232L51.2656 90.0369L50.4305 86.333L49.2821 81.2362L50.0996 80.9863L51.3044 86.333L52.1395 90.0369L54.8638 102.118V102.12L54.8821 102.204Z" fill="black" fill-opacity="0.6"/>
  <path d="M68.1322 71.7637H42.5381V86.3309H68.1322V71.7637Z" fill="#D8E7FC"/>
  <g style="mix-blend-mode:multiply" opacity="0.71">
  <path d="M62.217 71.7637H48.6499V86.3309H62.217V71.7637Z" fill="#D8E7FC"/>
  </g>
  <path d="M57.6008 100.868H53.207V103.719H57.6008V100.868Z" fill="#464C55"/>
  <g style="mix-blend-mode:multiply">
  <path d="M51.3041 86.332L52.1392 90.0359H51.2653L50.4302 86.332H51.3041Z" fill="#23262A" fill-opacity="0.5"/>
  </g>
  <g style="mix-blend-mode:multiply">
  <path d="M55.674 86.332L55.6828 90.0359H54.8374L54.8286 86.332H55.674Z" fill="#23262A" fill-opacity="0.5"/>
  </g>
  <g style="mix-blend-mode:multiply">
  <path d="M60.3194 86.332L59.4843 90.0359H58.6104L59.4448 86.332H60.3194Z" fill="#23262A" fill-opacity="0.5"/>
  </g>
  </g>
  <path d="M69.2008 159.615L64.7314 170.114H62.9766L65.5969 159.615H69.2008Z" fill="#464C55"/>
  <path d="M102.438 159.615L106.907 170.114H108.662L106.042 159.615H102.438Z" fill="#464C55"/>
  <path d="M108.453 129.799L108.302 116.761H61.5862L60.986 130.082L57.4419 130.132V156.013H112.012V129.154L108.453 129.799Z" fill="#E00000"/>
  <path d="M62.4439 113.889H106.453C107.913 113.889 109.158 115.048 109.139 116.778C109.103 120.08 108.983 125.782 108.985 131.704C108.989 142.084 109.139 153.141 109.139 153.141H64.0171C62.7856 153.141 61.7318 151.895 61.6707 150.372L60.6395 124.652L60.382 118.263L60.3479 117.392L60.3165 116.657C60.2989 116.199 60.3727 115.765 60.5185 115.383C60.8585 114.497 61.5843 113.889 62.4439 113.889Z" fill="#F08080"/>
  <path d="M116.785 130.605C116.592 135.414 115.909 145.037 115.713 148.37C115.517 151.7 114.639 159.843 105.652 159.843H61.8861C52.9019 159.843 52.0219 151.7 51.8262 148.37C51.6322 145.037 50.9484 135.414 50.7527 130.605C50.5565 125.793 52.7057 126.287 54.7563 126.409C55.2237 126.436 55.8024 126.564 56.4194 126.741C58.5034 127.334 61.0066 128.518 61.0066 128.518L61.4006 138.518C59.4054 139.797 57.9763 142.709 57.6003 143.538H57.5976C57.5329 143.681 57.4995 143.764 57.4995 143.764C57.4995 150.84 58.1872 152.249 61.8905 152.232C64.2748 152.224 58.5642 152.179 58.5642 152.179C58.5642 152.179 103.264 152.224 105.649 152.232C108.359 152.232 109.268 150.34 109.268 143.764C109.268 143.764 108.478 140.017 106.141 138.518L106.533 128.518C106.533 128.518 110.732 126.533 112.783 126.41C114.833 126.288 116.982 125.794 116.786 130.605L116.785 130.605Z" fill="#F08080"/>
  <path d="M61.2712 138.703C59.3538 139.943 57.9805 142.764 57.6192 143.567H57.6166L56.4844 127.292C58.487 127.866 60.8926 129.014 60.8926 129.014L61.2712 138.703Z" fill="#E00000" fill-opacity="0.3"/>
  <path d="M107.225 137.344C109.778 138.302 109.364 140.837 109.778 141.652L111.054 127.292C108.761 127.875 108.501 128.249 108.501 128.249L107.225 137.344Z" fill="#E00000" fill-opacity="0.3"/>
  <g style="mix-blend-mode:screen" opacity="0.23">
  <path d="M65.3453 132.69C63.5579 131.836 63.9719 121.529 65.232 118.953C66.4921 116.377 82.8516 117.367 85.9757 116.754C89.0997 116.142 103.429 114.503 104.655 117.804C105.88 121.104 105.214 125.386 104.068 130.601C102.922 135.817 67.5325 133.736 65.3453 132.69Z" fill="#F08080"/>
  </g>
  <g style="mix-blend-mode:multiply" opacity="0.5">
  <path d="M57.4891 141.652C57.4891 141.652 56.8255 153.14 60.474 152.956C66.0217 152.677 82.5425 152.86 84.5682 153.053C86.5936 153.245 106.216 153.223 107.725 151.914C109.234 150.604 109.138 142.272 109.138 142.272L57.4891 141.652Z" fill="#E00000"/>
  </g>
  <path d="M110.097 142.475L109.14 146.917C109.14 148.862 107.506 151.86 106.011 151.86L61.8675 152.182C58.8243 152.182 57.4419 149.18 57.4419 146.027V142.475C57.4419 142.054 57.5269 141.642 57.6821 141.244C58.8602 138.21 64.0872 135.907 66.6322 135.907H102.915C106.793 135.907 110.097 140.071 110.097 142.475Z" fill="#F08080"/>
  <path opacity="0.6" d="M110.097 140.556V141.651L57.4419 141.485C58.6285 138.314 59.3566 137.343 61.6704 135.907H103.005C106.911 135.907 110.097 138.043 110.097 140.556Z" fill="#FFB4A8"/>
  <g style="mix-blend-mode:multiply" opacity="0.5">
  <g style="mix-blend-mode:multiply" opacity="0.5">
  <path d="M85.5982 124.933C85.5432 124.933 85.4921 124.935 85.4386 124.936C85.4317 124.896 85.4249 124.856 85.4142 124.818C85.2844 124.345 84.9118 123.971 84.4392 123.846C84.4018 123.834 84.3621 123.829 84.3232 123.821C84.3239 123.767 84.3262 123.715 84.3262 123.66C84.3262 122.815 84.2155 120.218 84.0765 120.218C83.9376 120.218 83.8269 122.814 83.8269 123.66C83.8269 123.715 83.8292 123.768 83.8299 123.821C83.791 123.829 83.7513 123.834 83.7139 123.846C83.242 123.971 82.8695 124.345 82.7397 124.818C82.7282 124.856 82.7221 124.896 82.7145 124.936C82.661 124.936 82.6099 124.933 82.5549 124.933C81.7158 124.933 79.1216 125.045 79.1216 125.184C79.1216 125.322 81.7158 125.434 82.5549 125.434C82.6106 125.434 82.6618 125.432 82.7152 125.431C82.7221 125.47 82.7282 125.509 82.7397 125.547C82.8687 126.021 83.242 126.394 83.7139 126.525C83.7513 126.535 83.7902 126.541 83.8284 126.549C83.8276 126.603 83.8269 126.656 83.8269 126.712C83.8269 127.557 83.9376 130.153 84.0765 130.153C84.2155 130.153 84.3262 127.557 84.3262 126.712C84.3262 126.656 84.3262 126.602 84.3247 126.549C84.3636 126.541 84.4026 126.535 84.4392 126.525C84.911 126.4 85.2844 126.026 85.4142 125.551C85.4256 125.514 85.431 125.474 85.4386 125.434C85.4921 125.435 85.5432 125.438 85.5982 125.438C86.4403 125.438 89.0346 125.323 89.0346 125.184C89.0346 125.044 86.4403 124.933 85.5982 124.933Z" fill="#E00000"/>
  </g>
  </g>
  <g style="mix-blend-mode:multiply" opacity="0.5">
  <g style="mix-blend-mode:multiply" opacity="0.5">
  <path d="M87.5126 138.527C87.3884 138.527 87.2729 138.527 87.1522 138.528C87.1366 138.518 87.1211 138.507 87.097 138.498C86.8038 138.379 85.9621 138.285 84.8945 138.254C84.81 138.251 84.7203 138.25 84.6324 138.248C84.6341 138.234 84.6393 138.221 84.6393 138.207C84.6393 137.996 84.3892 137.824 84.0753 137.824C83.7614 137.824 83.5113 137.995 83.5113 138.207C83.5113 138.221 83.5165 138.234 83.5182 138.248C83.4303 138.25 83.3406 138.251 83.2561 138.254C82.1902 138.285 81.3485 138.379 81.0553 138.498C81.0295 138.507 81.0157 138.518 80.9984 138.528C80.8777 138.528 80.7621 138.527 80.638 138.527C78.7425 138.527 77.2075 138.555 77.2075 138.59C77.2075 138.625 78.7425 138.653 80.638 138.653C80.7639 138.653 80.8794 138.652 81.0001 138.652C81.0157 138.662 81.0295 138.671 81.0553 138.681C81.3468 138.8 82.1902 138.893 83.2561 138.926C83.3406 138.929 83.4285 138.93 83.5148 138.932C83.513 138.946 83.5113 138.959 83.5113 138.973C83.5113 139.185 83.7614 139.356 84.0753 139.356C84.3892 139.356 84.6393 139.185 84.6393 138.973C84.6393 138.959 84.6393 138.946 84.6358 138.932C84.7238 138.93 84.8117 138.929 84.8945 138.926C85.9604 138.895 86.8038 138.801 87.097 138.682C87.1228 138.673 87.1349 138.663 87.1522 138.653C87.2729 138.653 87.3884 138.654 87.5126 138.654C89.415 138.654 90.95 138.625 90.95 138.59C90.95 138.555 89.415 138.527 87.5126 138.527Z" fill="#F08080"/>
  </g>
  </g>
  <path d="M202.324 149.641L202.025 158.63C202.863 158.013 203.77 157.476 204.646 156.929C205.508 156.39 206.363 155.827 207.122 155.143C207.894 154.448 208.482 153.634 208.992 152.735C209.486 151.866 209.941 150.963 210.608 150.207C211.132 149.611 211.782 149.143 212.474 148.761C213.908 147.966 215.501 147.522 216.955 146.77C217.688 146.393 218.377 145.934 218.948 145.335C219.638 144.614 220.136 143.738 220.6 142.864C221.065 141.992 221.503 141.1 222.077 140.291C222.567 139.602 223.158 138.99 223.822 138.468C225.152 137.421 226.743 136.738 228.386 136.363C232.408 135.442 236.522 136.467 240.375 137.653C240.602 137.724 240.83 137.795 241.058 137.867C241.355 135.531 237.96 133.71 235.827 133.323C234.368 133.059 232.88 133.567 231.399 133.528C223.895 133.336 219 130.801 215.525 139.443C215.137 140.41 214.803 141.442 214.076 142.19C210.784 145.116 202.44 143.169 202.322 149.64L202.324 149.641Z" fill="#D32F2F" fill-opacity="0.12"/>
  <path d="M208.23 167.925C214.327 170.106 220.48 164.791 216.501 157.992C213.74 154.492 217.271 152.283 220.439 151.472C222.011 151.067 223.934 150.977 224.763 149.58C226.2 146.405 222.042 142.362 228.832 140.708C232.664 139.772 239.82 143.112 241.015 138.124C241.021 138.1 241.026 138.076 241.03 138.052C237.372 136.901 233.54 135.797 229.681 136.317C227.987 136.546 226.316 137.075 224.855 137.975C224.142 138.414 223.482 138.944 222.912 139.56C222.277 140.245 221.788 141.036 221.344 141.856C220.875 142.723 220.449 143.618 219.897 144.438C219.412 145.161 218.824 145.794 218.111 146.296C216.821 147.202 215.3 147.684 213.862 148.3C213.131 148.615 212.406 148.965 211.756 149.43C211.013 149.963 210.436 150.643 209.957 151.419C209.435 152.269 209.013 153.178 208.425 153.985C207.859 154.767 207.14 155.42 206.367 155.994C204.975 157.032 203.407 157.818 202.02 158.864C202.02 158.864 201.372 165.472 208.231 167.927L208.23 167.925Z" fill="#D32F2F" fill-opacity="0.12"/>
  <path d="M202.026 158.631L202.02 158.864C203.407 157.818 204.974 157.032 206.367 155.995C207.14 155.421 207.858 154.767 208.425 153.986C209.013 153.178 209.435 152.269 209.957 151.42C210.436 150.643 211.013 149.963 211.756 149.43C212.406 148.966 213.131 148.615 213.862 148.3C215.3 147.685 216.82 147.203 218.111 146.296C218.825 145.794 219.412 145.161 219.897 144.438C220.448 143.618 220.876 142.724 221.344 141.856C221.788 141.037 222.276 140.245 222.911 139.56C223.482 138.944 224.142 138.414 224.855 137.975C226.316 137.075 227.987 136.546 229.681 136.317C233.54 135.797 237.372 136.901 241.03 138.052C241.043 137.991 241.055 137.931 241.061 137.87C240.832 137.797 240.605 137.726 240.378 137.656C236.525 136.469 232.412 135.444 228.389 136.365C226.745 136.74 225.155 137.423 223.825 138.471C223.161 138.992 222.57 139.605 222.08 140.294C221.505 141.101 221.067 141.994 220.604 142.867C220.139 143.742 219.641 144.618 218.951 145.338C218.381 145.935 217.691 146.396 216.958 146.773C215.505 147.525 213.912 147.969 212.477 148.764C211.785 149.146 211.135 149.614 210.611 150.209C209.943 150.965 209.489 151.868 208.996 152.738C208.485 153.636 207.897 154.45 207.125 155.145C206.366 155.829 205.51 156.393 204.649 156.932C203.773 157.479 202.866 158.016 202.029 158.632L202.026 158.631Z" fill="#0F5DC4"/>
  <path d="M202.026 158.631L202.02 158.864C203.407 157.818 204.974 157.032 206.367 155.995C207.14 155.421 207.858 154.767 208.425 153.986C209.013 153.178 209.435 152.269 209.957 151.42C210.436 150.643 211.013 149.963 211.756 149.43C212.406 148.966 213.131 148.615 213.862 148.3C215.3 147.685 216.82 147.203 218.111 146.296C218.825 145.794 219.412 145.161 219.897 144.438C220.448 143.618 220.876 142.724 221.344 141.856C221.788 141.037 222.276 140.245 222.911 139.56C223.482 138.944 224.142 138.414 224.855 137.975C226.316 137.075 227.987 136.546 229.681 136.317C233.54 135.797 237.372 136.901 241.03 138.052C241.043 137.991 241.055 137.931 241.061 137.87C240.832 137.797 240.605 137.726 240.378 137.656C236.525 136.469 232.412 135.444 228.389 136.365C226.745 136.74 225.155 137.423 223.825 138.471C223.161 138.992 222.57 139.605 222.08 140.294C221.505 141.101 221.067 141.994 220.604 142.867C220.139 143.742 219.641 144.618 218.951 145.338C218.381 145.935 217.691 146.396 216.958 146.773C215.505 147.525 213.912 147.969 212.477 148.764C211.785 149.146 211.135 149.614 210.611 150.209C209.943 150.965 209.489 151.868 208.996 152.738C208.485 153.636 207.897 154.45 207.125 155.145C206.366 155.829 205.51 156.393 204.649 156.932C203.773 157.479 202.866 158.016 202.029 158.632L202.026 158.631Z" fill="white"/>
  <path d="M212.901 139.009C213.317 138.593 213.203 137.836 212.789 137.417C212.376 136.999 211.763 136.854 211.178 136.813C210.234 136.747 209.361 136.892 208.455 137.084C209.165 136.558 209.855 136.006 210.525 135.434C210.968 135.055 211.405 134.666 211.832 134.268C212.761 135.212 213.974 135.868 215.265 136.119C215.755 136.214 216.325 136.229 216.679 135.872C217.092 135.455 216.977 134.698 216.567 134.28C216.155 133.861 215.546 133.715 214.966 133.674C213.991 133.605 213.092 133.762 212.155 133.964C213.459 132.721 214.677 131.385 215.772 129.951C216.828 130.713 218.107 131.153 219.403 131.192C219.9 131.207 220.466 131.13 220.76 130.721C221.104 130.243 220.871 129.514 220.401 129.168C219.929 128.82 219.306 128.775 218.726 128.828C217.786 128.913 216.95 129.195 216.088 129.53C217.219 128 218.254 126.307 218.754 124.458C218.765 124.419 218.774 124.381 218.783 124.342C219.945 124.958 221.288 125.215 222.59 125.065C223.085 125.007 223.634 124.848 223.868 124.401C224.141 123.877 223.809 123.19 223.293 122.915C222.778 122.64 222.153 122.685 221.586 122.822C220.588 123.062 219.744 123.515 218.863 124.021C219.383 121.867 219.514 119.607 220.106 117.475C221.28 118.113 222.647 118.382 223.971 118.229C224.467 118.172 225.015 118.012 225.249 117.565C225.523 117.042 225.191 116.354 224.674 116.079C224.159 115.804 223.535 115.849 222.968 115.986C221.943 116.233 221.079 116.704 220.174 117.226C220.33 116.697 220.519 116.175 220.751 115.665C221.223 114.634 221.906 113.716 222.727 112.928C223.71 113.888 224.989 114.531 226.338 114.734C226.831 114.808 227.402 114.799 227.74 114.427C228.136 113.993 227.99 113.241 227.561 112.842C227.133 112.441 226.518 112.321 225.935 112.305C224.868 112.275 223.903 112.511 222.881 112.782C224.231 111.541 225.922 110.646 227.644 110.185C228.633 110.939 229.833 111.408 231.065 111.513C231.561 111.555 232.131 111.509 232.446 111.116C232.815 110.658 232.621 109.917 232.169 109.545C231.717 109.173 231.096 109.093 230.513 109.115C229.586 109.148 228.746 109.379 227.884 109.659C227.851 109.651 227.815 109.65 227.774 109.659C226.301 110.017 224.908 110.684 223.669 111.567C223.396 111.762 223.13 111.968 222.87 112.185C223.443 111.11 223.727 109.875 223.669 108.654C223.646 108.148 223.526 107.581 223.101 107.315C222.606 107.005 221.908 107.297 221.605 107.8C221.3 108.305 221.305 108.941 221.402 109.524C221.582 110.611 222.008 111.541 222.479 112.526C221.955 113.004 221.474 113.53 221.074 114.118C220.469 115.009 220.057 115.981 219.754 116.993C219.805 115.732 219.502 114.459 218.882 113.365C218.634 112.925 218.272 112.477 217.775 112.437C217.195 112.39 216.705 112.973 216.662 113.563C216.618 114.152 216.908 114.717 217.255 115.191C217.923 116.099 218.745 116.738 219.633 117.418C219.179 119.101 218.988 120.882 218.68 122.58C218.583 123.115 218.472 123.642 218.332 124.162C218.455 122.798 218.157 121.398 217.487 120.21C217.238 119.77 216.878 119.322 216.381 119.28C215.801 119.233 215.311 119.816 215.266 120.405C215.222 120.995 215.511 121.559 215.858 122.034C216.539 122.964 217.383 123.613 218.293 124.31C218.139 124.861 217.952 125.403 217.709 125.93C217.266 126.894 216.717 127.805 216.117 128.675C215.958 128.906 215.793 129.134 215.627 129.36C215.853 128.14 215.743 126.856 215.304 125.697C215.125 125.224 214.836 124.723 214.352 124.606C213.786 124.47 213.213 124.969 213.08 125.545C212.947 126.121 213.148 126.724 213.42 127.246C213.923 128.213 214.606 128.954 215.349 129.731C214.278 131.131 213.077 132.433 211.802 133.644C212.339 132.469 212.536 131.134 212.353 129.85C212.281 129.349 212.109 128.796 211.662 128.573C211.139 128.311 210.473 128.67 210.218 129.201C209.963 129.732 210.027 130.365 210.177 130.936C210.465 132.02 210.989 132.916 211.561 133.869C211.392 134.029 211.22 134.187 211.048 134.343C210.1 135.2 209.112 136.017 208.083 136.773C208.588 135.621 208.77 134.321 208.592 133.071C208.52 132.571 208.348 132.017 207.901 131.794C207.378 131.532 206.712 131.891 206.457 132.422C206.202 132.953 206.266 133.587 206.416 134.158C206.696 135.212 207.199 136.088 207.753 137.012C206.569 137.862 205.33 138.632 204.039 139.295C203.77 139.433 204 139.847 204.268 139.711C205.573 139.041 206.821 138.261 208.017 137.401C208.952 138.35 210.172 139.007 211.475 139.258C211.968 139.352 212.542 139.367 212.897 139.009H212.901Z" fill="#F08080"/>
  <defs>
  <linearGradient id="paint0_linear_193_9448" x1="123.837" y1="174.475" x2="59.7679" y2="-12.1036" gradientUnits="userSpaceOnUse">
  <stop stop-color="#D8E7FC"/>
  <stop offset="1" stop-color="#F5F9FE"/>
  </linearGradient>
  <linearGradient id="paint1_linear_193_9448" x1="94.3004" y1="35.3835" x2="168.209" y2="45.6282" gradientUnits="userSpaceOnUse">
  <stop stop-color="#EFF6FF"/>
  <stop offset="1" stop-color="#DAEAFF"/>
  </linearGradient>
  <linearGradient id="paint2_linear_193_9448" x1="164.188" y1="103.358" x2="224.032" y2="243.608" gradientUnits="userSpaceOnUse">
  <stop stop-color="#B6D6FF"/>
  <stop offset="0.192708" stop-color="#C2DDFF"/>
  <stop offset="1" stop-color="#3A88EF"/>
  </linearGradient>
  <clipPath id="clip0_193_9448">
  <rect width="71.8023" height="139.775" fill="white" transform="translate(89.0347 33.4697)"/>
  </clipPath>
  <clipPath id="clip1_193_9448">
  <rect width="61.3714" height="1.91473" fill="white" transform="translate(94.6792 37.2988)"/>
  </clipPath>
  <clipPath id="clip2_193_9448">
  <rect width="26.8062" height="98.6085" fill="white" transform="translate(42.124 71.7646)"/>
  </clipPath>
  </defs>
</svg>
