<svg xmlns="http://www.w3.org/2000/svg" width="20" height="20" viewBox="0 0 20 20" fill="none">
<path d="M13.0623 14.0208L13.9998 13.0833L10.6873 9.75V5.5625H9.43734V10.25L13.0623 14.0208ZM9.99984 18.3333C8.86095 18.3333 7.78456 18.1146 6.77067 17.6771C5.75678 17.2396 4.87136 16.6424 4.11442 15.8854C3.35748 15.1285 2.76025 14.2431 2.32275 13.2292C1.88525 12.2153 1.6665 11.1389 1.6665 10C1.6665 8.86111 1.88525 7.78472 2.32275 6.77083C2.76025 5.75695 3.35748 4.87153 4.11442 4.11458C4.87136 3.35764 5.75678 2.76042 6.77067 2.32292C7.78456 1.88542 8.86095 1.66667 9.99984 1.66667C11.1387 1.66667 12.2151 1.88542 13.229 2.32292C14.2429 2.76042 15.1283 3.35764 15.8853 4.11458C16.6422 4.87153 17.2394 5.75695 17.6769 6.77083C18.1144 7.78472 18.3332 8.86111 18.3332 10C18.3332 11.1389 18.1144 12.2153 17.6769 13.2292C17.2394 14.2431 16.6422 15.1285 15.8853 15.8854C15.1283 16.6424 14.2429 17.2396 13.229 17.6771C12.2151 18.1146 11.1387 18.3333 9.99984 18.3333ZM9.99984 17.0833C11.9443 17.0833 13.6109 16.3889 14.9998 15C16.3887 13.6111 17.0832 11.9444 17.0832 10C17.0832 8.05556 16.3887 6.38889 14.9998 5C13.6109 3.61111 11.9443 2.91667 9.99984 2.91667C8.05539 2.91667 6.38873 3.61111 4.99984 5C3.61095 6.38889 2.9165 8.05556 2.9165 10C2.9165 11.9444 3.61095 13.6111 4.99984 15C6.38873 16.3889 8.05539 17.0833 9.99984 17.0833Z" fill="#23262A"/>
</svg>