<svg xmlns="http://www.w3.org/2000/svg" width="20" height="20" viewBox="0 0 20 20" fill="none">
<path d="M9.99984 1.66667C6.77484 1.66667 4.1665 4.275 4.1665 7.5C4.1665 11.875 9.99984 18.3333 9.99984 18.3333C9.99984 18.3333 15.8332 11.875 15.8332 7.5C15.8332 4.275 13.2248 1.66667 9.99984 1.66667ZM5.5 7.5C5.5 5.2 7.7 3 10 3C12.3 3 14.5 5.2 14.5 7.5C14.5 9.9 11.7667 14.2583 10 16.5C8.26667 14.275 5.5 9.875 5.5 7.5Z" fill="#23262A"/>
<path d="M11.5832 7.5C11.5832 8.37445 10.8743 9.08333 9.99984 9.08333C9.12539 9.08333 8.4165 8.37445 8.4165 7.5C8.4165 6.62555 9.12539 5.91667 9.99984 5.91667C10.8743 5.91667 11.5832 6.62555 11.5832 7.5Z" stroke="black"/>
</svg>