<svg xmlns="http://www.w3.org/2000/svg" width="20" height="20" viewBox="0 0 20 20" fill="none">
<path fill-rule="evenodd" clip-rule="evenodd" d="M9.63109 2.09632C9.86258 1.9661 10.1457 1.96804 10.3754 2.10141L17.7534 6.3854C18.2844 6.69376 18.2844 7.46071 17.7534 7.76906L10.3754 12.0531C10.1457 12.1864 9.86259 12.1884 9.63109 12.0581L2.0157 7.77449C1.47198 7.46865 1.47198 6.68582 2.0157 6.37997L9.63109 2.09632ZM9.99524 3.2683L3.2238 7.07723L9.99524 10.8862L16.5551 7.07723L9.99524 3.2683ZM4.99996 10.9772C5.33134 10.9772 5.59996 11.2459 5.59996 11.5772V13.7562C6.32958 14.2198 7.5237 15.4655 9.99996 15.4655C12.4488 15.4655 13.2985 14.2429 13.9 13.789V11.5772C13.9 11.2459 14.1686 10.9772 14.5 10.9772C14.8313 10.9772 15.1 11.2459 15.1 11.5772V14.0322C15.1 14.2217 15.0224 14.4228 14.8522 14.5654C14.5297 14.8355 13.2354 16.6655 9.99996 16.6655C6.78531 16.6655 5.06685 14.8536 4.69895 14.599C4.49716 14.4594 4.39996 14.2382 4.39996 14.0261V11.5772C4.39996 11.2459 4.66859 10.9772 4.99996 10.9772Z" fill="#23262A"/>
<path fill-rule="evenodd" clip-rule="evenodd" d="M9.63109 2.09632C9.86258 1.9661 10.1457 1.96804 10.3754 2.10141L17.7534 6.3854C18.2844 6.69376 18.2844 7.46071 17.7534 7.76906L10.3754 12.0531C10.1457 12.1864 9.86259 12.1884 9.63109 12.0581L2.0157 7.77449C1.47198 7.46865 1.47198 6.68582 2.0157 6.37997L9.63109 2.09632ZM9.99524 3.2683L3.2238 7.07723L9.99524 10.8862L16.5551 7.07723L9.99524 3.2683ZM4.99996 10.9772C5.33134 10.9772 5.59996 11.2459 5.59996 11.5772V13.7562C6.32958 14.2198 7.5237 15.4655 9.99996 15.4655C12.4488 15.4655 13.2985 14.2429 13.9 13.789V11.5772C13.9 11.2459 14.1686 10.9772 14.5 10.9772C14.8313 10.9772 15.1 11.2459 15.1 11.5772V14.0322C15.1 14.2217 15.0224 14.4228 14.8522 14.5654C14.5297 14.8355 13.2354 16.6655 9.99996 16.6655C6.78531 16.6655 5.06685 14.8536 4.69895 14.599C4.49716 14.4594 4.39996 14.2382 4.39996 14.0261V11.5772C4.39996 11.2459 4.66859 10.9772 4.99996 10.9772Z" fill="#23262A"/>
<path fill-rule="evenodd" clip-rule="evenodd" d="M16.75 9.50628C16.75 9.45335 16.7779 9.40433 16.8234 9.37731L17.5234 8.96168C17.6234 8.90231 17.75 8.97437 17.75 9.09066V12.3271C17.75 12.6033 17.5261 12.8271 17.25 12.8271C16.9739 12.8271 16.75 12.6033 16.75 12.3271V9.50628Z" fill="#23262A"/>
</svg>